# xmcd
#
# Track frame offsets: 
#        150
#        27694
#        45096
#        55039
#        67581
#        79622
#        105961
#        131579
#        145972
#        168260
#        188376
#        203211
#        223153
#        239946
#        264052
#        279046
#        300733
#        311378
#        325909
#        336800
#
# Disc length: 4700 seconds
#
# Revision: 1
# Processed by: cddbd v1.5.2PL0 Copyright (c) Steve Scherf et al.
# Submitted via: ExactAudioCopyFreeDBPlugin 1.0
#
DISCID=0a125a14
DTITLE=Diverse Interpreten - The Very Best Of Blues CD1
DYEAR=2015
DGENRE=Blues
TTITLE0=Lucille - John Lee Hooker
TTITLE1=The house of the rising sun - Blues Guitars United
TTITLE2=I'm your witchdoctor - John Mayall
TTITLE3=Leaving blues - Johnny Winter
TTITLE4=Got my mojo working - Canned Heat
TTITLE5=I just want to make love to you - Willie Dixon
TTITLE6=Ain't no business we can do - Peppermint Harris
TTITLE7=The colour of the blues - Travelling Blues  - Gert Lange
TTITLE8=Moth to a flame - Roger Chapman
TTITLE9=Wang-dang-doodle - Eric Clapton and Jimmy Page
TTITLE10=Early morning rain - Gordon Lightfoot
TTITLE11=So fine - Elvin Bishop
TTITLE12=Morning dew - Grateful Dead
TTITLE13=Near you - Boz Scaggs
TTITLE14=Stagger Lee - Taj Mahal
TTITLE15=Hey! Bo Diddley - John Hammond
TTITLE16=Windy and warm - Doc Watson
TTITLE17=C.C. Rider (see see rider) - Lightnin' Hopkins
TTITLE18=Ramblin' banjo - Roger McGuinn
TTITLE19=Good morning little schoolgirl - Fred "Mississippi" McDowell
EXTD=
EXTT0=
EXTT1=
EXTT2=
EXTT3=
EXTT4=
EXTT5=
EXTT6=
EXTT7=
EXTT8=
EXTT9=
EXTT10=
EXTT11=
EXTT12=
EXTT13=
EXTT14=
EXTT15=
EXTT16=
EXTT17=
EXTT18=
EXTT19=
PLAYORDER=
